<?xml version="1.0" encoding="UTF-8"?>
<svg id="Layer_2" data-name="Layer 2" xmlns="http://www.w3.org/2000/svg" viewBox="0 0 614.79 363.12">
  <defs>
    <style>
      .cls-1 {
        fill: #04442f;
      }

      .cls-2 {
        fill: #8bc53f;
      }
    </style>
  </defs>
  <g id="Layer_1-2" data-name="Layer 1">
    <g>
      <g>
        <path class="cls-1" d="M39.02,310H13.74v12.92h23.65v11.92H13.74v14.55h26.02v12.37H0v-63.67H39.02v11.92Z"/>
        <path class="cls-1" d="M80.32,297.45c12.83,0,26.47,6.91,29.38,22.65h-13.19c-2.82-7.19-8.55-10.37-16.19-10.37-11.28,0-18.83,8.19-18.83,20.28,0,10.92,7.37,20.01,18.74,20.01,7.91,0,14.37-3.73,16.56-11.46h13.1c-2.73,16.83-16.28,23.83-29.56,23.83-16.74,0-32.56-11.28-32.56-32.38s15.83-32.84,32.56-32.56Z"/>
        <path class="cls-1" d="M149.37,362.85c-17.01,0-32.38-11.46-32.38-32.93s15.74-32.84,32.66-32.84,32.38,11.46,32.38,32.84c0,19.37-13.37,32.93-32.66,32.93Zm.18-12.46c9.92,0,18.92-6.55,18.92-20.47s-8.91-20.28-18.83-20.28-18.92,6.82-18.92,20.28,8.64,20.47,18.83,20.47Z"/>
        <path class="cls-1" d="M215.6,361.67v-63.67c9.1-.09,18.1,0,27.2,0,14.83,0,22.65,11.19,22.65,23.2s-8.1,22.47-22.65,22.47h-13.55v18.01h-13.64Zm27.2-29.65c5.82,0,9.64-5.09,9.64-11.19s-3.64-10.91-9.64-10.91c-4.64-.09-9.19,0-13.83,0v22.1h13.83Z"/>
        <path class="cls-1" d="M314.12,310h-25.29v12.92h23.65v11.92h-23.65v14.55h26.01v12.37h-39.75v-63.67h39.02v11.92Z"/>
        <path class="cls-1" d="M336.59,342.93c.27,5.82,6.64,8.28,12.83,8.28,5.64,0,12.19-1.37,12.19-8,0-7.28-7.82-7.91-13.92-8.37-11.55-1-23.2-4.91-23.2-18.1,0-14.1,11.55-20.01,24.2-20.01,11.92,0,24.29,5,24.29,19.28h-12.73c-.73-5.18-6.09-7.37-11.55-7.37s-10.82,2.91-10.82,7.82c0,5.64,5.55,6.91,12.19,7.64,13.46,1.18,25.02,4.18,25.02,19.1s-13.01,19.65-25.56,19.92c-12.73,0-25.92-6.28-25.92-20.19h13.01Z"/>
        <path class="cls-1" d="M379.89,309.91v-11.83h47.12v11.83h-16.92v51.85h-13.19v-51.85h-17.01Z"/>
        <path class="cls-2" d="M479.42,298.18h-23.65v63.58h23.65c9.94,0,17.64-3.68,22.89-9.34v-44.89c-5.27-5.67-12.96-9.36-22.89-9.36Zm-.19,51.3h-9.91v-39.03h9.91c11.55,0,17.83,9.18,17.83,19.37s-6.1,19.65-17.83,19.65Z"/>
        <path class="cls-2" d="M531.23,298.18h-23.65v63.58h23.65c10.29,0,18.16-3.95,23.43-9.93v-43.67c-5.25-6.02-13.13-9.97-23.43-9.97Zm-.19,51.3h-9.91v-39.03h9.91c11.56,0,17.83,9.18,17.83,19.37s-6.1,19.65-17.83,19.65Z"/>
        <path class="cls-2" d="M583.58,298.18c20.28,0,31.2,15.37,31.2,31.56,.27,16.28-10.64,32.02-31.2,32.02h-23.65v-63.58h23.65Zm-.18,51.3c11.73,0,17.83-9.46,17.83-19.65s-6.28-19.37-17.83-19.37h-9.91v39.02h9.91Z"/>
      </g>
      <g>
        <g>
          <path class="cls-2" d="M360.14,82.85h-105.48c-44.3,0-80.34,36.04-80.34,80.33s36.04,80.33,80.34,80.33h29.67c-3.11-4.51-4.93-9.97-4.93-15.85v-6.57h-24.74c-31.93,0-57.92-25.98-57.92-57.91s25.99-57.91,57.92-57.91h41.52v103.68h22.43V105.27h41.53c31.93,0,57.91,25.98,57.91,57.91s-25.98,57.91-57.91,57.91h-24.75v6.57c0,5.88-1.82,11.34-4.93,15.85h29.68c44.3,0,80.33-36.04,80.33-80.33s-36.04-80.33-80.33-80.33Z"/>
          <path class="cls-2" d="M256.97,186.53v41.13c0,5.54,.9,10.87,2.56,15.85,6.65,20.06,25.6,34.57,47.86,34.57s41.21-14.51,47.87-34.57c1.66-4.99,2.55-10.32,2.55-15.85v-41.13h-100.84Zm78.42,41.13c0,5.88-1.82,11.34-4.93,15.85-5.05,7.33-13.51,12.14-23.06,12.14s-18.01-4.81-23.06-12.14c-3.11-4.51-4.93-9.97-4.93-15.85v-18.71h55.99v18.71Z"/>
        </g>
        <g>
          <path class="cls-1" d="M275.68,60.42h-22.43c0-20.22-15.86-52.84-35.79-55.17-1.3-.15-2.26-1.3-2.26-2.61h0c0-1.5,1.25-2.71,2.75-2.64,32.08,1.44,57.73,27.99,57.73,60.41Z"/>
          <path class="cls-1" d="M361.54,60.42h-22.43C339.12,27.99,364.77,1.45,396.84,0c1.5-.07,2.75,1.14,2.75,2.64h0c0,1.31-.96,2.45-2.26,2.61-19.93,2.33-35.79,34.95-35.79,55.17Z"/>
        </g>
      </g>
    </g>
  </g>
</svg>